<svg id="OBJECTS" xmlns="http://www.w3.org/2000/svg" viewBox="0 0 138.03 169.67"><defs><style>.cls-1{fill:#4a636b;}.cls-2{fill:#e21b54;}.cls-3{fill:#27b7d8;}.cls-4{fill:#546e7a;}.cls-5{font-size:25.73px;}.cls-5,.cls-7{fill:#fff;font-family:SegoeUIHistoric, Segoe UI Historic;}.cls-6{letter-spacing:-0.01em;}.cls-7{font-size:14.67px;}</style></defs><title>logotestebranco</title><polygon class="cls-1" points="133.03 76.31 72.28 46.54 72.28 32.24 133.03 62.01 133.03 76.31"/><polygon class="cls-1" points="11.53 76.31 72.28 46.54 72.28 32.24 11.53 62.01 11.53 76.31"/><polygon class="cls-2" points="133.03 95.69 72.28 65.92 72.28 51.62 133.03 81.39 133.03 95.69"/><polygon class="cls-2" points="133.03 115.07 72.28 85.3 72.28 71 133.03 100.77 133.03 115.07"/><polygon class="cls-3" points="76.28 29.77 76.28 30.52 90.11 37.3 137.03 14.3 137.03 0 76.28 29.77"/><polygon class="cls-3" points="115.06 49.53 129.65 56.68 137.03 53.06 137.03 38.76 115.06 49.53"/><polygon class="cls-3" points="95.29 39.84 109.88 46.99 137.03 33.68 137.03 19.38 95.29 39.84"/><polygon class="cls-1" points="46.46 34.25 32.78 27.55 32.78 52.19 46.46 58.89 46.46 34.25"/><polygon class="cls-1" points="11.53 81.19 11.53 108.48 25.21 115.18 25.21 74.49 11.53 81.19"/><rect class="cls-4" x="33.86" y="78.4" width="4.74" height="4.74"/><rect class="cls-4" x="40.91" y="78.4" width="4.74" height="4.74"/><rect class="cls-4" x="33.86" y="84.92" width="4.74" height="4.74"/><rect class="cls-4" x="40.91" y="84.92" width="4.74" height="4.74"/><text class="cls-5" transform="translate(0 143.8) scale(0.83 1)">CASA FOR<tspan class="cls-6" x="117.17" y="0">R</tspan><tspan x="132.31" y="0">OS</tspan></text><text class="cls-7" transform="translate(26.21 159.55) scale(0.98 1)">E DIVISÓRIAS</text></svg>