<?xml version="1.0" encoding="utf-8"?>
<!-- Generator: Adobe Illustrator 23.0.1, SVG Export Plug-In . SVG Version: 6.00 Build 0)  -->
<svg version="1.1" xmlns="http://www.w3.org/2000/svg" xmlns:xlink="http://www.w3.org/1999/xlink" x="0px" y="0px"
	 viewBox="0 0 500 500" style="enable-background:new 0 0 500 500;" xml:space="preserve">
<style type="text/css">
	.st0{display:none;}
	.st1{display:inline;fill:none;}
	.st2{display:inline;}
	.st3{fill:#546E7A;}
	.st4{fill:#FF4081;}
	.st5{fill:#26C6DA;}
	.st6{font-family:'Antonio-Bold';}
	.st7{font-size:24.0836px;}
	.st8{letter-spacing:4;}
	.st9{fill:#78909C;}
	.st10{font-family:'Roboto-Regular';}
	.st11{font-size:12.3331px;}
	.st12{letter-spacing:2;}
	.st13{display:inline;fill:#4A636B;}
	.st14{display:inline;fill:#E21B54;}
	.st15{fill:#27B7D8;}
	.st16{fill:#4A636B;}
	.st17{display:inline;fill:#546E7A;}
	.st18{display:inline;fill:#78909C;}
	.st19{font-family:'SegoeUIHistoric';}
	.st20{font-size:25.7261px;}
	.st21{font-size:14.6702px;}
	.st22{display:inline;fill:#DA1B54;}
	.st23{fill:#4F230D;}
	.st24{fill:#D6D6D6;}
	.st25{fill:#BFA269;}
	.st26{fill:#A5B7C6;}
	.st27{fill:#C52B58;}
	.st28{fill:#532717;}
	.st29{fill:#9B9B9B;}
	.st30{fill:#BA9C64;}
	.st31{fill:#030303;}
	.st32{font-size:39.0391px;}
	.st33{font-size:22.2618px;}
</style>
<g id="BACKGROUND" class="st0">
	<rect class="st1" width="500" height="500"/>
</g>
<g id="OBJECTS">
	<g class="st0">
		<g class="st2">
			<g>
				<polygon class="st3" points="172.6,148.25 112.74,88.18 52.54,148.25 65.44,148.25 112.74,100.95 160.04,148.25 				"/>
			</g>
			<polygon class="st4" points="88.07,88.18 27.86,148.25 46.19,148.25 106.27,88.18 			"/>
			<g>
				<polygon class="st5" points="170.31,88.18 143.44,115.05 149.82,121.45 170.31,100.95 217.61,148.25 230.51,148.25 				"/>
				<polygon class="st5" points="133.17,125.32 119.27,139.22 87.94,139.22 78.91,148.25 123.01,148.25 139.56,131.7 				"/>
			</g>
		</g>
		<g class="st2">
			<text transform="matrix(1 0 0 1 39.6187 183.1021)" class="st3 st6 st7 st8">Real Estate</text>
			<text transform="matrix(1 0 0 1 80.9502 199.2036)" class="st9 st10 st11 st12">slogan here</text>
		</g>
	</g>
	<g class="st0">
		<g class="st2">
			<polygon class="st5" points="346.89,150.31 316.97,150.31 316.97,65.01 346.89,89.67 			"/>
			<polygon class="st3" points="340.49,150.31 340.49,70.31 376.24,44.95 376.24,150.31 384.46,150.31 384.46,29.57 332.27,66.44 
				332.27,150.31 			"/>
			<rect x="383.73" y="143.12" class="st4" width="60.86" height="7.19"/>
			<polygon class="st4" points="426.59,146.25 396.68,146.25 396.68,83.56 426.59,108.23 			"/>
			<g>
				<polygon class="st5" points="355.69,150.31 384.46,121.54 413.23,150.31 435.03,150.31 384.46,99.74 333.89,150.31 				"/>
				<g>
					<polygon class="st3" points="384.46,99.74 384.46,121.54 413.23,150.31 435.03,150.31 					"/>
				</g>
			</g>
			<rect x="302.69" y="143.12" class="st3" width="81.77" height="7.19"/>
		</g>
		<g class="st2">
			<text transform="matrix(1 0 0 1 284.0713 183.1021)" class="st3 st6 st7 st8">Real Estate</text>
			<text transform="matrix(1 0 0 1 325.4023 199.2036)" class="st9 st10 st11 st12">slogan here</text>
		</g>
	</g>
	<g class="st0">
		<g class="st2">
			<polygon class="st4" points="446.25,277.34 365.13,387.66 368.21,391.85 445.69,286.5 464.84,312.54 472.14,312.54 			"/>
			<polygon class="st5" points="370.72,294.84 304.12,294.84 279.26,328.65 286.55,328.65 304.12,304.76 333.05,344.11 
				370.72,294.84 			"/>
			<polygon class="st3" points="440.76,276.57 390.92,276.57 336.13,348.22 362.1,383.54 			"/>
			<g>
				<rect x="297.78" y="317.6" class="st3" width="4.74" height="4.74"/>
				<rect x="304.82" y="317.6" class="st3" width="4.74" height="4.74"/>
				<rect x="297.78" y="324.12" class="st3" width="4.74" height="4.74"/>
				<rect x="304.82" y="324.12" class="st3" width="4.74" height="4.74"/>
			</g>
			<g>
				<g>
					<rect x="439.52" y="300.87" class="st3" width="4.74" height="4.74"/>
					<rect x="446.56" y="300.87" class="st3" width="4.74" height="4.74"/>
					<rect x="439.52" y="307.38" class="st3" width="4.74" height="4.74"/>
					<rect x="446.56" y="307.38" class="st3" width="4.74" height="4.74"/>
				</g>
			</g>
		</g>
		<g class="st2">
			<text transform="matrix(1 0 0 1 284.0713 420.9902)" class="st3 st6 st7 st8">Real Estate</text>
			<text transform="matrix(1 0 0 1 325.4023 437.0918)" class="st9 st10 st11 st12">slogan here</text>
		</g>
	</g>
	<g class="st0">
		<g>
			<polygon class="st13" points="242.34,199.81 181.59,170.04 181.59,155.74 242.34,185.51 			"/>
			<polygon class="st13" points="120.84,199.81 181.59,170.04 181.59,155.74 120.84,185.51 			"/>
			<polygon class="st3" points="363.84,200.81 303.09,171.04 303.09,156.74 363.84,186.51 			"/>
			<polygon class="st3" points="242.34,200.81 303.09,171.04 303.09,156.74 242.34,186.51 			"/>
			<polygon class="st14" points="242.34,219.19 181.59,189.42 181.59,175.12 242.34,204.89 			"/>
			<polygon class="st14" points="242.34,238.57 181.59,208.8 181.59,194.5 242.34,224.27 			"/>
			<g class="st2">
				<polygon class="st15" points="185.59,153.27 185.59,154.03 199.41,160.8 246.34,137.81 246.34,123.51 				"/>
				<g>
					<polygon class="st15" points="224.37,173.03 238.96,180.18 246.34,176.57 246.34,162.27 					"/>
				</g>
				<g>
					<polygon class="st15" points="204.59,163.34 219.19,170.49 246.34,157.19 246.34,142.89 					"/>
				</g>
			</g>
			<polygon class="st13" points="155.77,157.76 142.09,151.05 142.09,175.69 155.77,182.39 			"/>
			<polygon class="st16" points="120.84,204.7 120.84,231.98 134.52,238.69 134.52,197.99 			"/>
			<polygon class="st16" points="134.52,238.28 134.52,265.56 120.68,272.26 120.68,231.57 			"/>
		</g>
		<g>
			<g class="st2">
				<rect x="143.17" y="201.91" class="st3" width="4.74" height="4.74"/>
				<rect x="150.21" y="201.91" class="st3" width="4.74" height="4.74"/>
				<rect x="143.17" y="208.42" class="st3" width="4.74" height="4.74"/>
				<rect x="150.21" y="208.42" class="st3" width="4.74" height="4.74"/>
			</g>
		</g>
		<g>
			<text transform="matrix(1 0 0 1 27.87 420.8326)" class="st17 st6 st7 st8">casa forros</text>
			<text transform="matrix(1 0 0 1 77.3959 436.9341)" class="st18 st10 st11 st12">e divisórias</text>
		</g>
	</g>
	<text transform="matrix(0.8347 0 0 1 109.3348 307.022)" class="st0 st19 st20">casa forros</text>
	<text transform="matrix(0.9772 0 0 1 135.5472 322.771)" class="st0 st19 st21">e divisórias</text>
	<g class="st0">
		<polygon class="st13" points="238.64,238.25 184.02,206.43 184.02,191.14 238.64,222.96 		"/>
		<polygon class="st13" points="129.4,238.25 184.02,206.43 184.02,191.14 129.4,222.96 		"/>
		<polygon class="st3" points="347.88,239.32 293.26,207.5 293.26,192.21 347.88,224.03 		"/>
		<polygon class="st3" points="238.64,239.32 293.26,207.5 293.26,192.21 238.64,224.03 		"/>
		<polygon class="st22" points="238.64,258.96 184.02,227.14 184.02,211.86 238.64,243.68 		"/>
		<polygon class="st22" points="238.64,279.68 184.02,247.86 184.02,232.57 238.64,264.39 		"/>
		<g class="st2">
			<polygon class="st23" points="187.62,188.5 187.62,189.31 200.04,196.55 242.24,171.97 242.24,156.68 			"/>
			<g>
				<polygon class="st24" points="222.48,209.62 235.6,217.27 242.24,213.4 242.24,198.11 				"/>
			</g>
			<g>
				<polygon class="st25" points="204.7,199.26 217.82,206.91 242.24,192.68 242.24,177.4 				"/>
			</g>
		</g>
		<polygon class="st13" points="160.8,193.29 148.5,186.13 148.5,212.46 160.8,219.63 		"/>
		<polygon class="st13" points="129.4,243.47 129.4,272.64 141.7,279.8 141.7,236.3 		"/>
		<polygon class="st16" points="141.7,279.36 141.7,308.53 129.25,315.69 129.25,272.2 		"/>
	</g>
</g>
<g id="DESIGNED_BY_FREEPIK">
	<g class="st0">
		<g id="XMLID_29_" class="st2">
			<g id="XMLID_48_">
				<path id="XMLID_56_" class="st26" d="M257.79,464.38c-0.49,0.5-0.91,1.05-1.26,1.65l-0.53-0.27c-0.08-0.34-0.4-0.57-0.75-0.53
					c-0.37,0.04-0.64,0.38-0.6,0.76c0.04,0.37,0.38,0.64,0.76,0.6c0.07-0.01,0.14-0.03,0.21-0.06l0.51,0.27
					c-0.28,0.63-0.49,1.29-0.61,1.97l0.85,0.15c0.26-1.48,0.96-2.84,2.03-3.93L257.79,464.38z"/>
				<path id="XMLID_55_" class="st26" d="M264.01,461.77c-0.19,0-0.39,0.01-0.58,0.02l-0.08-0.71c0.21-0.17,0.33-0.44,0.3-0.73
					c-0.05-0.45-0.46-0.76-0.9-0.71c-0.45,0.05-0.76,0.46-0.71,0.9c0.03,0.29,0.21,0.52,0.46,0.64l0.08,0.71
					c-0.81,0.13-1.59,0.38-2.33,0.73l0.37,0.77c1.06-0.51,2.2-0.76,3.39-0.76c0.56,0,1.12,0.06,1.67,0.18l0.18-0.84
					C265.25,461.84,264.63,461.77,264.01,461.77z"/>
				<path id="XMLID_54_" class="st26" d="M271.48,464.66c0.37-0.05,0.64-0.39,0.6-0.76c-0.05-0.37-0.39-0.64-0.76-0.6
					c-0.35,0.04-0.61,0.34-0.6,0.69l-0.47,0.41c-0.47-0.49-1.01-0.92-1.59-1.29l-0.46,0.73c1.28,0.81,2.29,1.95,2.9,3.31l0.78-0.35
					c-0.28-0.63-0.64-1.21-1.07-1.75l0.46-0.4C271.34,464.66,271.41,464.66,271.48,464.66z"/>
				<path id="XMLID_53_" class="st26" d="M263.39,473.33c-0.44,0.03-0.88,0.04-1.31,0.04c-1,0-1.96-0.07-2.81-0.2
					c-0.44-0.07-0.96-0.18-1.44-0.33c1.18,2.11,3.48,3.54,6.1,3.54c3.23,0,5.96-2.17,6.74-5.1c-0.77,0.51-1.7,0.93-2.78,1.27
					C266.55,472.96,264.99,473.23,263.39,473.33z"/>
				<path id="XMLID_49_" class="st26" d="M264.01,463.49c-3.8,0-6.88,3.02-6.88,6.73c0,0.48,0.05,0.96,0.16,1.43
					c0.76,0.55,3.06,1.01,6.06,0.83c3.26-0.2,6-1.08,7.56-2.44c-0.01-0.22-0.02-0.44-0.05-0.66
					C270.41,466.02,267.47,463.49,264.01,463.49z M261.56,470.87c-1.15,0-2.09-0.94-2.09-2.09c0-1.15,0.94-2.09,2.09-2.09
					c1.15,0,2.09,0.94,2.09,2.09C263.66,469.93,262.72,470.87,261.56,470.87z M266.93,469.84c-0.85,0-1.54-0.69-1.54-1.54
					c0-0.85,0.69-1.54,1.54-1.54c0.85,0,1.54,0.69,1.54,1.54C268.47,469.15,267.78,469.84,266.93,469.84z"/>
			</g>
			<path id="XMLID_46_" class="st26" d="M282.13,465.6c-0.33-0.13-0.91-0.35-1.57-0.27c-0.62,0.08-0.96,0.39-0.96,1.14v0.98h2.52
				v1.94h-2.52v6.18h-2.19v-6.18h-1.52v-1.94h1.52v-1.01c0-1.9,1.01-3.15,2.91-3.15c0.73,0,1.31,0.14,1.8,0.35L282.13,465.6z"/>
			<path id="XMLID_44_" class="st26" d="M287.45,469.38c-0.2-0.03-0.4-0.05-0.6-0.05c-1.01,0-1.71,0.62-1.71,1.83v4.43h-2.19v-8.12
				h2.12v0.89c0.51-0.76,1.29-1.11,2.29-1.11c0.47,0,0.96,0.14,1.24,0.38L287.45,469.38z"/>
			<path id="XMLID_41_" class="st26" d="M296.14,471.5c0,0.25-0.02,0.55-0.04,0.74h-5.76c0.23,1.17,1.06,1.68,2.09,1.68
				c0.7,0,1.47-0.28,2.05-0.78l1.28,1.41c-0.92,0.85-2.1,1.23-3.46,1.23c-2.49,0-4.22-1.69-4.22-4.25c0-2.56,1.68-4.3,4.11-4.3
				C294.53,467.24,296.13,468.97,296.14,471.5z M290.35,470.75h3.6c-0.2-1.04-0.83-1.63-1.77-1.63
				C291.14,469.12,290.54,469.74,290.35,470.75z"/>
			<path id="XMLID_38_" class="st26" d="M304.8,471.5c0,0.25-0.02,0.55-0.04,0.74H299c0.23,1.17,1.06,1.68,2.09,1.68
				c0.7,0,1.47-0.28,2.05-0.78l1.28,1.41c-0.92,0.85-2.1,1.23-3.46,1.23c-2.49,0-4.22-1.69-4.22-4.25c0-2.56,1.68-4.3,4.11-4.3
				C303.19,467.24,304.8,468.97,304.8,471.5z M299.01,470.75h3.6c-0.2-1.04-0.83-1.63-1.77-1.63
				C299.81,469.12,299.2,469.74,299.01,470.75z"/>
			<path id="XMLID_35_" class="st26" d="M314.25,471.51c0,2.44-1.69,4.27-3.93,4.27c-1.09,0-1.86-0.43-2.39-1.06v4.2h-2.18v-11.47
				h2.14v0.9c0.53-0.66,1.31-1.11,2.42-1.11C312.56,467.24,314.25,469.07,314.25,471.51z M307.83,471.51c0,1.28,0.85,2.24,2.09,2.24
				c1.29,0,2.1-1,2.1-2.24c0-1.24-0.8-2.24-2.1-2.24C308.67,469.27,307.83,470.23,307.83,471.51z"/>
			<path id="XMLID_32_" class="st26" d="M317.77,464.8c0,0.79-0.61,1.39-1.4,1.39c-0.79,0-1.39-0.6-1.39-1.39
				c0-0.79,0.6-1.41,1.39-1.41C317.16,463.39,317.77,464.01,317.77,464.8z M317.48,475.58h-2.19v-8.12h2.19V475.58z"/>
			<path id="XMLID_30_" class="st26" d="M321.13,470.35l3.06-2.89h2.68l-3.94,3.82l3.96,4.3h-2.69l-3.08-3.29v3.29h-2.19v-12.07
				h2.19V470.35z"/>
		</g>
		<g class="st2">
			<path class="st26" d="M172.08,475.5v-1.19c-0.6,0.81-1.58,1.39-2.7,1.39c-2.09,0-3.57-1.59-3.57-4.2c0-2.55,1.46-4.21,3.57-4.21
				c1.08,0,2.06,0.53,2.7,1.41v-4.26h1.24v11.06H172.08z M172.08,473.33v-3.63c-0.45-0.7-1.41-1.29-2.41-1.29
				c-1.61,0-2.57,1.33-2.57,3.1c0,1.77,0.96,3.09,2.57,3.09C170.67,474.59,171.63,474.03,172.08,473.33z"/>
			<path class="st26" d="M174.93,471.49c0-2.32,1.66-4.2,3.95-4.2c2.42,0,3.85,1.89,3.85,4.3v0.32h-6.49
				c0.1,1.51,1.16,2.77,2.89,2.77c0.91,0,1.84-0.37,2.47-1.01l0.6,0.81c-0.8,0.8-1.87,1.23-3.18,1.23
				C176.64,475.7,174.93,473.99,174.93,471.49z M178.86,468.32c-1.71,0-2.55,1.44-2.62,2.67h5.26
				C181.48,469.8,180.69,468.32,178.86,468.32z"/>
			<path class="st26" d="M183.62,474.44l0.65-0.9c0.53,0.61,1.54,1.14,2.64,1.14c1.23,0,1.89-0.58,1.89-1.38
				c0-1.94-4.96-0.75-4.96-3.72c0-1.24,1.08-2.31,2.99-2.31c1.36,0,2.32,0.51,2.97,1.16l-0.58,0.86c-0.48-0.58-1.36-1.01-2.39-1.01
				c-1.09,0-1.77,0.55-1.77,1.26c0,1.76,4.96,0.6,4.96,3.72c0,1.34-1.08,2.42-3.15,2.42C185.55,475.7,184.44,475.3,183.62,474.44z"
				/>
			<path class="st26" d="M191.4,465.52c0-0.46,0.38-0.85,0.83-0.85c0.46,0,0.85,0.38,0.85,0.85c0,0.46-0.38,0.83-0.85,0.83
				C191.78,466.35,191.4,465.98,191.4,465.52z M191.62,475.5v-8.01h1.24v8.01H191.62z"/>
			<path class="st26" d="M194.92,477.56l0.63-0.93c0.66,0.8,1.46,1.09,2.6,1.09c1.33,0,2.57-0.65,2.57-2.41v-1.14
				c-0.58,0.81-1.56,1.43-2.69,1.43c-2.09,0-3.57-1.56-3.57-4.15c0-2.57,1.46-4.16,3.57-4.16c1.08,0,2.04,0.53,2.69,1.41v-1.21h1.24
				v7.78c0,2.65-1.86,3.48-3.81,3.48C196.79,478.75,195.86,478.49,194.92,477.56z M200.73,473.2v-3.5c-0.43-0.7-1.39-1.29-2.39-1.29
				c-1.61,0-2.57,1.28-2.57,3.05c0,1.76,0.96,3.05,2.57,3.05C199.33,474.51,200.29,473.89,200.73,473.2z"/>
			<path class="st26" d="M209.45,475.5v-5.24c0-1.41-0.71-1.86-1.79-1.86c-0.98,0-1.91,0.6-2.37,1.24v5.86h-1.24v-8.01h1.24v1.16
				c0.56-0.66,1.66-1.36,2.85-1.36c1.68,0,2.55,0.85,2.55,2.59v5.62H209.45z"/>
			<path class="st26" d="M212.3,471.49c0-2.32,1.66-4.2,3.95-4.2c2.42,0,3.85,1.89,3.85,4.3v0.32h-6.49
				c0.1,1.51,1.16,2.77,2.89,2.77c0.91,0,1.84-0.37,2.47-1.01l0.6,0.81c-0.8,0.8-1.87,1.23-3.18,1.23
				C214.01,475.7,212.3,473.99,212.3,471.49z M216.23,468.32c-1.71,0-2.55,1.44-2.62,2.67h5.26
				C218.85,469.8,218.06,468.32,216.23,468.32z"/>
			<path class="st26" d="M227.5,475.5v-1.19c-0.6,0.81-1.58,1.39-2.7,1.39c-2.09,0-3.57-1.59-3.57-4.2c0-2.55,1.46-4.21,3.57-4.21
				c1.08,0,2.06,0.53,2.7,1.41v-4.26h1.24v11.06H227.5z M227.5,473.33v-3.63c-0.45-0.7-1.41-1.29-2.41-1.29
				c-1.61,0-2.57,1.33-2.57,3.1c0,1.77,0.96,3.09,2.57,3.09C226.09,474.59,227.05,474.03,227.5,473.33z"/>
			<path class="st26" d="M234.68,475.5v-11.06h1.24v4.26c0.65-0.88,1.61-1.41,2.7-1.41c2.09,0,3.57,1.66,3.57,4.21
				c0,2.6-1.48,4.2-3.57,4.2c-1.13,0-2.11-0.58-2.7-1.39v1.19H234.68z M238.31,474.59c1.63,0,2.59-1.31,2.59-3.09
				c0-1.78-0.96-3.1-2.59-3.1c-0.98,0-1.96,0.6-2.39,1.29v3.63C236.35,474.03,237.33,474.59,238.31,474.59z"/>
			<path class="st26" d="M243.55,477.51c0.18,0.08,0.48,0.13,0.68,0.13c0.55,0,0.91-0.18,1.19-0.85l0.53-1.21l-3.35-8.09h1.34
				l2.67,6.57l2.65-6.57h1.36l-4.01,9.64c-0.48,1.16-1.29,1.61-2.36,1.63c-0.27,0-0.68-0.05-0.91-0.12L243.55,477.51z"/>
		</g>
	</g>
	<polygon class="st27" points="284.57,212.53 207.03,167.36 207.03,145.65 284.57,190.83 	"/>
	<polygon class="st27" points="129.48,212.53 207.03,167.36 207.03,145.65 129.48,190.83 	"/>
	<g>
		<polygon class="st28" points="205.6,185.46 204.33,186.19 203.73,211.7 279.29,254.1 303.43,240.35 		"/>
		<g>
			<polygon class="st29" points="202.64,257.77 202.01,284.71 213.89,291.37 238.02,277.62 			"/>
		</g>
		<g>
			<polygon class="st30" points="203.5,221.27 202.87,248.21 246.59,272.74 270.72,258.98 			"/>
		</g>
	</g>
	<polygon class="st27" points="174.07,148.71 156.61,138.54 156.61,175.93 174.07,186.1 	"/>
	<polygon class="st31" points="129.48,219.94 129.48,261.35 146.95,271.52 146.95,209.77 	"/>
	<text transform="matrix(0.7021 0 0 1 114.0444 330.5713)" class="st19 st32">casa forros</text>
	<text transform="matrix(0.822 0 0 1 145.7632 354.4727)" class="st19 st33">e divisórias</text>
</g>
</svg>
